HIERARCHY
ROOT Hips
{
	OFFSET	0.00	0.00	0.00
	CHANNELS 6 Xposition Yposition Zposition Zrotation Xrotation Yrotation
	JOINT LeftUpLeg
	{
		OFFSET	 0.126116	-0.014019	-0.065224
		CHANNELS 3 Zrotation Xrotation Yrotation
		JOINT LeftLeg
		{
			OFFSET	 0.000000	 0.000000	 0.569914
			CHANNELS 3 Zrotation Xrotation Yrotation
			JOINT LeftFoot
			{
				OFFSET	 0.000000	 0.000000	 0.544423
				CHANNELS 3 Zrotation Xrotation Yrotation
				JOINT LeftToeBase
				{
					OFFSET	 0.000000	 0.000000	 0.207117
					CHANNELS 3 Zrotation Xrotation Yrotation
					End Site
					{
						OFFSET	 0.000000	 0.000000	 0.207117
					}
				}
			}
		}
	}
	JOINT RightUpLeg
	{
		OFFSET	-0.124023	-0.008373	-0.065224
		CHANNELS 3 Zrotation Xrotation Yrotation
		JOINT RightLeg
		{
			OFFSET	 0.000000	 0.000000	 0.570047
			CHANNELS 3 Zrotation Xrotation Yrotation
			JOINT RightFoot
			{
				OFFSET	 0.000000	 0.000000	 0.544354
				CHANNELS 3 Zrotation Xrotation Yrotation
				JOINT RightToeBase
				{
					OFFSET	 0.000000	 0.000000	 0.207540
					CHANNELS 3 Zrotation Xrotation Yrotation
					End Site
					{
						OFFSET	 0.000000	 0.000000	 0.207540
					}
				}
			}
		}
	}
	JOINT Spine
	{
		OFFSET	 0.000184	-0.007763	 0.117403
		CHANNELS 3 Zrotation Xrotation Yrotation
		JOINT Spine1
		{
			OFFSET	 0.000000	 0.000000	 0.137269
			CHANNELS 3 Zrotation Xrotation Yrotation
			JOINT Spine2
			{
				OFFSET	 0.000000	 0.000000	 0.156879
				CHANNELS 3 Zrotation Xrotation Yrotation
				JOINT LeftShoulder
				{
					OFFSET	 0.080501	-0.002496	 0.160144
					CHANNELS 3 Zrotation Xrotation Yrotation
					JOINT LeftArm
					{
						OFFSET	 0.000000	 0.000000	 0.164363
						CHANNELS 3 Zrotation Xrotation Yrotation
						JOINT LeftForeArm
						{
							OFFSET	 0.000000	 0.000000	 0.364576
							CHANNELS 3 Zrotation Xrotation Yrotation
							JOINT LeftHand
							{
								OFFSET	 0.000000	 0.000000	 0.360812
								CHANNELS 3 Zrotation Xrotation Yrotation
								JOINT LeftHandIndex1
								{
									OFFSET	 0.000000	 0.000000	 0.086006
									CHANNELS 3 Zrotation Xrotation Yrotation
									JOINT LeftHandIndex2
									{
										OFFSET	 0.000000	 0.000000	 0.047236
										CHANNELS 3 Zrotation Xrotation Yrotation
										JOINT LeftHandIndex3
										{
											OFFSET	-0.004284	-0.000551	 0.038166
											CHANNELS 3 Zrotation Xrotation Yrotation
											End Site
											{
												OFFSET	-0.004284	-0.000551	 0.038166
											}
										}
									}
								}
							}
						}
					}
				}
				JOINT Neck
				{
					OFFSET	 0.000000	 0.000000	 0.176489
					CHANNELS 3 Zrotation Xrotation Yrotation
					JOINT Head
					{
						OFFSET	 0.000000	-0.001747	 0.077940
						CHANNELS 3 Zrotation Xrotation Yrotation
						End Site
						{
							OFFSET	 0.000000	-0.001747	 0.077940
						}
					}
				}
				JOINT RightShoulder
				{
					OFFSET	-0.080363	 0.000306	 0.159706
					CHANNELS 3 Zrotation Xrotation Yrotation
					JOINT RightArm
					{
						OFFSET	 0.000000	 0.000000	 0.164196
						CHANNELS 3 Zrotation Xrotation Yrotation
						JOINT RightForeArm
						{
							OFFSET	 0.000000	 0.000000	 0.365611
							CHANNELS 3 Zrotation Xrotation Yrotation
							JOINT RightHand
							{
								OFFSET	 0.000000	 0.000000	 0.360648
								CHANNELS 3 Zrotation Xrotation Yrotation
								JOINT RightHandIndex1
								{
									OFFSET	 0.000000	 0.000000	 0.069977
									CHANNELS 3 Zrotation Xrotation Yrotation
									JOINT RightHandIndex2
									{
										OFFSET	 0.000000	 0.000000	 0.052305
										CHANNELS 3 Zrotation Xrotation Yrotation
										JOINT RightHandIndex3
										{
											OFFSET	 0.009002	-0.000782	 0.042196
											CHANNELS 3 Zrotation Xrotation Yrotation
											End Site
											{
												OFFSET	 0.009002	-0.000782	 0.042196
											}
										}
									}
								}
							}
						}
					}
				}
			}
		}
	}
}
MOTION
Frames:    10
Frame Time: 0.03333334
 3.013260	 6.830262	 0.075875	-85.413800	-2.125779	 0.265370	 6.654951	-2.925057	-178.744900	-2.345338	-35.933010	 1.379038	 7.737472	 89.681630	-6.532249	-2.376054	 30.446200	-0.043694	 1.490026	-28.958600	 179.419900	 22.661630	-73.756180	 26.139830	 173.597000	 89.542010	-166.322600	 2.378995	 29.591960	 0.026246	 32.625400	 4.645279	 1.260470	-9.664612	-1.159625	 0.598201	-10.325920	-3.473390	-0.996563	-91.800480	 78.000320	 178.924300	 35.781020	 63.821160	-47.260780	 27.320260	-27.591910	-27.467440	 4.328131	 5.197703	-5.387241	-3.812334	 37.924440	-2.927599	-2.450526	 36.184240	 0.754587	-1.378229	 35.397820	-2.634230	-0.311757	 4.030453	-1.771276	-2.202311	-11.867610	-2.163587	 89.794520	 78.825840	 179.544300	-41.863100	 71.340360	 44.061050	-36.945730	-28.126130	 22.011120	-14.392730	 4.013741	 9.593482	 6.437017	 35.671460	-0.771858	 2.830251	 35.756010	-7.813440	-2.350882	 35.473990	 5.254307
 2.954497	 6.821355	 0.072251	-85.139110	-1.770862	-0.517349	 6.019531	 1.673446	-177.494900	-3.038617	-32.064060	 0.946241	 19.791160	 89.854630	-19.183410	-2.376028	 30.450790	-0.043799	 1.967035	-32.482810	 179.730000	 14.242570	-65.961320	 17.313280	-175.617900	 88.887240	-176.747200	 2.377715	 29.844220	 0.031804	 32.359510	 4.539412	 2.134974	-9.856718	-1.210542	 0.535233	-10.352370	-3.533085	-1.004497	-91.774890	 78.552100	 178.797100	 35.120240	 62.339920	-48.604850	 28.629210	-30.168450	-28.711310	 4.504113	 5.235132	-5.386497	-3.812334	 37.924440	-2.927599	-2.450526	 36.184240	 0.754587	-1.378229	 35.397820	-2.634230	-0.357225	 4.164712	-2.347660	-2.050046	-12.258470	-1.896631	 89.783850	 78.278930	 179.465900	-41.665850	 71.488270	 42.967510	-38.088280	-29.970350	 22.492710	-14.028290	 4.066409	 9.601181	 6.437017	 35.671460	-0.771858	 2.830251	 35.756010	-7.813440	-2.350882	 35.473990	 5.254307
 2.920454	 6.816797	 0.070850	-85.015590	-1.488452	-0.761899	 5.999356	 4.819052	-177.077700	-3.354767	-28.570010	 0.946225	 10.793950	 89.536060	-10.170550	-2.372652	 31.058750	-0.057384	 2.122469	-33.867210	 179.767100	 11.321490	-60.612340	 13.943460	-168.532200	 89.190850	 176.411300	 2.380348	 29.317580	 0.020220	 31.971350	 4.429446	 2.420482	-9.915688	-1.219998	 0.507352	-10.373070	-3.536498	-1.006824	-91.764400	 78.741610	 178.760400	 34.816300	 61.594330	-49.315760	 28.991190	-31.185010	-29.292030	 4.394058	 5.264783	-5.387992	-3.812334	 37.924440	-2.927599	-2.450526	 36.184240	 0.754587	-1.378229	 35.397820	-2.634230	-0.367896	 4.265956	-2.599733	-2.014154	-12.446780	-1.857169	 89.779420	 78.091160	 179.448800	-41.604100	 71.602550	 42.579420	-38.604180	-30.592690	 22.525350	-13.918270	 4.092610	 9.603153	 6.437017	 35.671460	-0.771858	 2.830251	 35.756010	-7.813440	-2.350882	 35.473990	 5.254307
 2.873885	 6.811602	 0.069304	-84.880720	-1.047958	-0.935078	 6.607016	 9.560845	-177.054800	-3.534799	-22.528060	 1.260074	 6.163431	 88.102040	-4.726549	-2.363764	 32.517190	-0.090515	 2.426264	-35.032920	 179.689200	 8.629093	-53.086430	 10.657340	-147.651800	 89.508620	 155.852000	 2.387853	 27.636130	-0.016202	 31.227830	 4.193229	 2.616638	-9.907575	-1.283184	 0.494616	-10.350490	-3.519542	-1.003097	-91.757430	 78.864930	 178.752900	 34.499160	 60.805080	-50.115760	 29.301710	-32.077050	-29.803140	 4.257261	 5.278404	-5.385035	-3.812334	 37.924440	-2.927599	-2.450526	 36.184240	 0.754587	-1.378229	 35.397820	-2.634230	-0.304506	 4.374921	-2.884881	-1.963774	-12.611420	-1.835421	 89.776670	 77.968540	 179.453200	-41.493390	 71.813190	 42.232240	-39.190430	-30.874420	 22.242680	-13.920410	 4.122598	 9.602983	 6.437017	 35.671460	-0.771858	 2.830251	 35.756010	-7.813440	-2.350882	 35.473990	 5.254307
 2.824144	 6.805464	 0.066899	-84.688870	-0.736240	-1.154813	 8.266006	 17.296540	-176.716300	-4.119238	-11.465430	 1.543403	 3.339509	 83.971130	 0.423324	-2.347814	 34.757530	-0.143061	 2.914075	-35.714140	 179.746200	 6.146249	-45.896690	 7.884133	-149.108700	 89.570220	 157.110200	 2.385785	 28.130150	-0.005586	 30.171790	 3.921752	 2.797647	-9.851486	-1.354981	 0.522774	-10.272400	-3.493683	-0.993181	-91.753030	 78.937480	 178.738800	 34.304990	 60.374690	-50.784450	 29.439920	-32.431100	-29.939100	 4.214172	 5.311751	-5.385853	-3.812334	 37.924440	-2.927599	-2.450526	 36.184240	 0.754587	-1.378229	 35.397820	-2.634230	-0.194351	 4.402003	-3.115618	-1.866034	-12.635670	-1.755592	 89.775050	 77.897340	 179.451700	-41.351120	 72.090420	 42.063970	-39.740250	-30.457680	 21.530620	-14.134420	 4.146731	 9.599216	 6.437017	 35.671460	-0.771858	 2.830251	 35.756010	-7.813440	-2.350882	 35.473990	 5.254307
 2.774120	 6.801859	 0.064789	-84.304480	-0.823622	-1.289853	 8.280010	 19.750550	-177.112000	-3.885842	-11.616400	 1.596572	 3.796754	 84.146390	 0.170132	-2.319741	 37.953690	-0.222076	 3.260803	-35.782210	 179.770600	 3.928835	-40.307010	 5.687936	-166.701100	 89.287280	 173.948600	 2.375264	 30.311290	 0.042156	 28.645180	 3.921954	 2.797062	-9.845196	-1.410270	 0.536444	-10.188050	-3.481170	-0.983876	-91.754010	 78.913290	 178.712700	 34.604280	 60.257660	-51.745320	 29.550620	-32.186990	-29.635770	 4.265854	 5.340925	-5.385556	-3.812334	 37.924440	-2.927599	-2.450526	 36.184240	 0.754587	-1.378229	 35.397820	-2.634230	-0.116668	 4.307333	-3.241967	-1.742992	-12.488840	-1.552184	 89.774660	 77.917450	 179.382000	-41.098340	 72.452290	 41.930290	-40.153190	-29.433520	 20.520940	-14.534420	 4.166482	 9.591854	 6.437017	 35.671460	-0.771858	 2.830251	 35.756010	-7.813440	-2.350882	 35.473990	 5.254307
 2.719589	 6.798562	 0.062983	-83.798690	-0.918694	-1.271501	 8.389681	 22.454910	-178.021600	-3.179778	-11.600820	 1.707342	 4.598741	 83.525830	-0.063704	-2.287404	 40.910450	-0.300314	 3.140020	-35.180340	 179.591500	 2.950856	-37.496190	 4.615738	-176.763100	 89.073170	-176.591900	 2.368282	 31.542590	 0.069787	 26.735780	 4.034199	 2.546056	-9.892187	-1.422501	 0.502204	-10.141140	-3.475394	-0.978816	-91.760410	 78.795740	 178.675100	 35.245330	 60.543000	-52.520070	 29.691250	-31.311290	-28.821700	 4.459249	 5.388425	-5.388704	-3.812334	 37.924440	-2.927599	-2.450526	 36.184240	 0.754587	-1.378229	 35.397820	-2.634230	-0.113121	 4.190520	-3.229768	-1.648356	-12.249350	-1.240953	 89.777020	 78.032380	 179.298900	-40.350280	 72.920530	 41.203780	-40.147500	-28.128650	 19.562200	-14.981580	 4.182190	 9.581712	 6.437017	 35.671460	-0.771858	 2.830251	 35.756010	-7.813440	-2.350882	 35.473990	 5.254307
 2.659393	 6.795982	 0.061030	-83.379500	-1.052367	-1.201118	 8.669974	 25.262710	-179.229800	-2.287108	-11.578620	 1.853630	 5.413934	 81.672460	-0.055091	-2.234501	 44.752980	-0.411285	 3.023139	-34.106080	 179.215900	 3.361791	-37.838590	 4.874164	 142.201300	 89.801190	-135.394700	 2.372597	 30.797840	 0.053015	 24.659250	 3.758248	 2.278755	-9.868375	-1.390810	 0.412087	-10.091470	-3.419899	-0.969133	-91.763020	 78.744870	 178.633400	 36.180640	 61.201110	-53.037050	 29.720500	-29.742320	-27.535720	 4.653931	 5.406272	-5.386191	-3.812334	 37.924440	-2.927599	-2.450526	 36.184240	 0.754587	-1.378229	 35.397820	-2.634230	-0.083149	 4.179232	-3.262211	-1.573748	-11.968000	-0.762906	 89.778830	 78.090230	 179.317800	-39.160690	 73.411470	 39.786140	-39.813070	-26.627760	 18.702190	-15.429740	 4.194521	 9.569220	 6.437017	 35.671460	-0.771858	 2.830251	 35.756010	-7.813440	-2.350882	 35.473990	 5.254307
 2.588950	 6.793858	 0.058867	-82.842650	-1.332366	-0.997742	 9.238469	 28.193510	 179.023800	-1.327765	-11.553540	 2.006010	 5.779322	 77.597590	 0.611810	-2.164046	 48.714820	-0.539935	 2.444060	-32.636340	 178.456000	 5.686629	-40.297110	 6.439333	 7.046450	 87.869350	 0.877661	 2.384680	 28.384160	-0.000105	 22.149750	 3.181530	 1.837104	-9.796879	-1.317442	 0.252575	-9.997250	-3.269840	-0.947011	-91.766860	 78.674290	 178.569900	 37.221640	 62.374740	-52.712250	 29.501810	-27.644230	-25.959160	 4.947956	 5.443553	-5.387052	-3.812334	 37.924440	-2.927599	-2.450526	 36.184240	 0.754587	-1.378229	 35.397820	-2.634230	-0.013371	 4.381166	-3.245641	-1.465944	-11.638730	-0.188462	 89.781280	 78.173870	 179.363300	-37.206760	 73.861050	 37.230490	-39.099590	-24.876180	 17.925830	-15.844480	 4.206040	 9.553940	 6.437017	 35.671460	-0.771858	 2.830251	 35.756010	-7.813440	-2.350882	 35.473990	 5.254307
 2.524244	 6.791492	 0.058865	-82.242610	-1.836247	-0.788319	 9.865694	 30.554360	 177.412200	-1.225958	-11.555370	 1.995306	 5.654971	 71.244510	 1.128458	-2.121533	 50.688210	-0.610868	 1.785368	-31.209610	 177.703100	 7.064031	-43.153590	 7.462639	 6.551741	 85.489590	 1.519410	 2.393788	 26.036250	-0.050130	 19.700630	 2.900171	 1.331566	-9.713305	-1.234504	 0.121906	-9.872884	-3.101437	-0.920733	-91.776120	 78.528480	 178.535800	 38.145220	 63.784120	-51.868310	 28.922970	-25.670830	-24.625210	 5.267082	 5.453446	-5.382647	-3.812334	 37.924440	-2.927599	-2.450526	 36.184240	 0.754587	-1.378229	 35.397820	-2.634230	 0.076050	 4.505253	-3.106350	-1.350656	-11.202030	 0.223794	 89.785420	 78.325100	 179.362600	-35.474960	 74.106700	 34.964010	-38.131710	-23.296640	 17.399030	-16.095560	 4.211898	 9.538400	 6.437017	 35.671460	-0.771858	 2.830251	 35.756010	-7.813440	-2.350882	 35.473990	 5.254307
